<svg width="78" height="78" viewBox="0 0 78 78" fill="none" xmlns="http://www.w3.org/2000/svg">
<path fill-rule="evenodd" clip-rule="evenodd" d="M39 3.25C19.2563 3.25 3.25 19.2563 3.25 39C3.25 58.7437 19.2563 74.75 39 74.75C58.7437 74.75 74.75 58.7437 74.75 39C74.75 19.2563 58.7437 3.25 39 3.25ZM42.25 22.75C42.25 21.888 41.9076 21.0614 41.2981 20.4519C40.6886 19.8424 39.862 19.5 39 19.5C38.138 19.5 37.3114 19.8424 36.7019 20.4519C36.0924 21.0614 35.75 21.888 35.75 22.75V42.25C35.75 43.112 36.0924 43.9386 36.7019 44.5481C37.3114 45.1576 38.138 45.5 39 45.5C39.862 45.5 40.6886 45.1576 41.2981 44.5481C41.9076 43.9386 42.25 43.112 42.25 42.25V22.75ZM42.25 53.625C42.25 52.763 41.9076 51.9364 41.2981 51.3269C40.6886 50.7174 39.862 50.375 39 50.375C38.138 50.375 37.3114 50.7174 36.7019 51.3269C36.0924 51.9364 35.75 52.763 35.75 53.625V55.25C35.75 56.112 36.0924 56.9386 36.7019 57.5481C37.3114 58.1576 38.138 58.5 39 58.5C39.862 58.5 40.6886 58.1576 41.2981 57.5481C41.9076 56.9386 42.25 56.112 42.25 55.25V53.625Z" fill="#EF5350"/>
</svg>
