<svg width="1052" height="686" viewBox="0 0 1052 686" fill="none" xmlns="http://www.w3.org/2000/svg">
<g id="Magazzino">
<g id="Group" opacity="0.4">
<path id="Vector" opacity="0.4" d="M434.493 140.83H360.543V280.1H434.493V140.83Z" fill="#B39DDB"/>
<path id="Vector_2" opacity="0.4" d="M360.543 140.83H235.893V280.1H360.543V140.83Z" fill="#D1C4E9"/>
<path id="Vector_3" opacity="0.4" d="M307.663 140.83H288.763V176.11H307.663V140.83Z" fill="#B39DDB"/>
<path id="Vector_4" opacity="0.4" d="M406.963 140.83H388.063V176.11H406.963V140.83Z" fill="#303F9F"/>
<path id="Vector_5" opacity="0.4" d="M344.073 247.76L340.073 256.62H341.173V272.14L346.973 272.15V256.62H348.073L344.073 247.76Z" fill="#26004F"/>
<path id="Vector_6" opacity="0.4" d="M335.033 247.76L331.033 256.62H332.133V272.14H337.933V256.62H339.033L335.033 247.76Z" fill="#26004F"/>
<path id="Vector_7" opacity="0.4" d="M367.553 257.2H366.343V272.15H367.553V257.2Z" fill="#26004F"/>
<path id="Vector_8" opacity="0.4" d="M388.023 257.2H386.813V272.15H388.023V257.2Z" fill="#26004F"/>
<path id="Vector_9" opacity="0.4" d="M370.233 261.08H369.023V272.15H370.233V261.08Z" fill="#26004F"/>
<path id="Vector_10" opacity="0.4" d="M372.593 261.08H370.733V272.15H372.593V261.08Z" fill="#26004F"/>
<path id="Vector_11" opacity="0.4" d="M379.243 261.08H378.033V272.15H379.243V261.08Z" fill="#26004F"/>
<path id="Vector_12" opacity="0.4" d="M381.603 261.08H379.743V272.15H381.603V261.08Z" fill="#26004F"/>
<path id="Vector_13" opacity="0.4" d="M374.663 259.92H373.453V272.14H374.663V259.92Z" fill="#26004F"/>
<path id="Vector_14" opacity="0.4" d="M377.023 261.08H375.163V272.15H377.023V261.08Z" fill="#26004F"/>
<path id="Vector_15" opacity="0.4" d="M383.523 261.08H382.313V272.15H383.523V261.08Z" fill="#26004F"/>
<path id="Vector_16" opacity="0.4" d="M385.883 261.08H384.023V272.15H385.883V261.08Z" fill="#26004F"/>
<path id="Vector_17" opacity="0.4" d="M226.103 168.09H212.073V613.83H226.103V168.09Z" fill="#D16E6B"/>
<path id="Vector_18" opacity="0.4" d="M465.643 168.09H451.613V613.83H465.643V168.09Z" fill="#D16E6B"/>
<path id="Vector_19" opacity="0.4" d="M458.633 295.78V280.1H219.093V295.78H458.633Z" fill="#D16E6B"/>
<path id="Vector_20" opacity="0.4" d="M435.703 341.39H361.753V480.66H435.703V341.39Z" fill="#B39DDB"/>
<path id="Vector_21" opacity="0.4" d="M361.753 341.39H237.103V480.66H361.753V341.39Z" fill="#D1C4E9"/>
<path id="Vector_22" opacity="0.4" d="M308.873 341.39H289.973V376.67H308.873V341.39Z" fill="#B39DDB"/>
<path id="Vector_23" opacity="0.4" d="M408.173 341.39H389.273V376.67H408.173V341.39Z" fill="#303F9F"/>
<path id="Vector_24" opacity="0.4" d="M345.283 448.32L341.283 457.18H342.383V472.71H348.183V457.18H349.283L345.283 448.32Z" fill="#26004F"/>
<path id="Vector_25" opacity="0.4" d="M336.243 448.32L332.243 457.18H333.343V472.71H339.143V457.18H340.243L336.243 448.32Z" fill="#26004F"/>
<path id="Vector_26" opacity="0.4" d="M368.763 457.76H367.553V472.71H368.763V457.76Z" fill="#26004F"/>
<path id="Vector_27" opacity="0.4" d="M389.233 457.76H388.023V472.71H389.233V457.76Z" fill="#26004F"/>
<path id="Vector_28" opacity="0.4" d="M371.443 461.64H370.233V472.71H371.443V461.64Z" fill="#26004F"/>
<path id="Vector_29" opacity="0.4" d="M373.803 461.64H371.943V472.71H373.803V461.64Z" fill="#26004F"/>
<path id="Vector_30" opacity="0.4" d="M380.453 461.64H379.243V472.71H380.453V461.64Z" fill="#26004F"/>
<path id="Vector_31" opacity="0.4" d="M382.813 461.64H380.953V472.71H382.813V461.64Z" fill="#26004F"/>
<path id="Vector_32" opacity="0.4" d="M375.873 460.48H374.663V472.7H375.873V460.48Z" fill="#26004F"/>
<path id="Vector_33" opacity="0.4" d="M378.233 461.64H376.373V472.71H378.233V461.64Z" fill="#26004F"/>
<path id="Vector_34" opacity="0.4" d="M384.733 461.64H383.523V472.71H384.733V461.64Z" fill="#26004F"/>
<path id="Vector_35" opacity="0.4" d="M387.093 461.64H385.233V472.71H387.093V461.64Z" fill="#26004F"/>
<path id="Vector_36" opacity="0.4" d="M459.843 496.34V480.66H220.303V496.34H459.843Z" fill="#D16E6B"/>
<path id="Vector_37" opacity="0.4" d="M606.543 341.39H532.593V480.66H606.543V341.39Z" fill="#B39DDB"/>
<path id="Vector_38" opacity="0.4" d="M532.593 341.39H407.943V480.66H532.593V341.39Z" fill="#D1C4E9"/>
<path id="Vector_39" opacity="0.4" d="M479.723 341.39H460.823V376.67H479.723V341.39Z" fill="#B39DDB"/>
<path id="Vector_40" opacity="0.4" d="M579.013 341.39H560.113V376.67H579.013V341.39Z" fill="#303F9F"/>
<path id="Vector_41" opacity="0.4" d="M516.123 448.32L512.123 457.18H513.223V472.71H519.023V457.18H520.123L516.123 448.32Z" fill="#26004F"/>
<path id="Vector_42" opacity="0.4" d="M507.083 448.32L503.083 457.18H504.183V472.71H509.983V457.18H511.093L507.083 448.32Z" fill="#26004F"/>
<path id="Vector_43" opacity="0.4" d="M539.603 457.76H538.393V472.71H539.603V457.76Z" fill="#26004F"/>
<path id="Vector_44" opacity="0.4" d="M560.073 457.76H558.863V472.71H560.073V457.76Z" fill="#26004F"/>
<path id="Vector_45" opacity="0.4" d="M542.283 461.64H541.073V472.71H542.283V461.64Z" fill="#26004F"/>
<path id="Vector_46" opacity="0.4" d="M544.653 461.64H542.793V472.71H544.653V461.64Z" fill="#26004F"/>
<path id="Vector_47" opacity="0.4" d="M551.293 461.64H550.083V472.71H551.293V461.64Z" fill="#26004F"/>
<path id="Vector_48" opacity="0.4" d="M553.663 461.64H551.803V472.71H553.663V461.64Z" fill="#26004F"/>
<path id="Vector_49" opacity="0.4" d="M546.713 460.48H545.503V472.7H546.713V460.48Z" fill="#26004F"/>
<path id="Vector_50" opacity="0.4" d="M549.083 461.64H547.223V472.71H549.083V461.64Z" fill="#26004F"/>
<path id="Vector_51" opacity="0.4" d="M555.573 461.64H554.363V472.71H555.573V461.64Z" fill="#26004F"/>
<path id="Vector_52" opacity="0.4" d="M557.933 461.64H556.073V472.71H557.933V461.64Z" fill="#26004F"/>
<path id="Vector_53" opacity="0.4" d="M567.423 140.83H501.893V280.1H567.423V140.83Z" fill="#B39DDB"/>
<path id="Vector_54" opacity="0.4" d="M501.893 140.83H406.733V280.1H501.893V140.83Z" fill="#D1C4E9"/>
<path id="Vector_55" opacity="0.4" d="M469.063 140.83H459.613V176.11H469.063V140.83Z" fill="#B39DDB"/>
<path id="Vector_56" opacity="0.4" d="M539.903 140.83H529.413V176.11H539.903V140.83Z" fill="#303F9F"/>
<path id="Vector_57" opacity="0.4" d="M485.423 247.76L481.423 256.62H482.523V272.14L488.323 272.15V256.62H489.423L485.423 247.76Z" fill="#26004F"/>
<path id="Vector_58" opacity="0.4" d="M476.383 247.76L472.383 256.62H473.483V272.14H479.283V256.62H480.383L476.383 247.76Z" fill="#26004F"/>
<path id="Vector_59" opacity="0.4" d="M508.903 257.2H507.693V272.15H508.903V257.2Z" fill="#26004F"/>
<path id="Vector_60" opacity="0.4" d="M529.373 257.2H528.163V272.15H529.373V257.2Z" fill="#26004F"/>
<path id="Vector_61" opacity="0.4" d="M511.583 261.08H510.373V272.15H511.583V261.08Z" fill="#26004F"/>
<path id="Vector_62" opacity="0.4" d="M513.943 261.08H512.083V272.15H513.943V261.08Z" fill="#26004F"/>
<path id="Vector_63" opacity="0.4" d="M520.593 261.08H519.383V272.15H520.593V261.08Z" fill="#26004F"/>
<path id="Vector_64" opacity="0.4" d="M522.953 261.08H521.093V272.15H522.953V261.08Z" fill="#26004F"/>
<path id="Vector_65" opacity="0.4" d="M516.013 259.92H514.803V272.14H516.013V259.92Z" fill="#26004F"/>
<path id="Vector_66" opacity="0.4" d="M518.373 261.08H516.513V272.15H518.373V261.08Z" fill="#26004F"/>
<path id="Vector_67" opacity="0.4" d="M524.873 261.08H523.663V272.15H524.873V261.08Z" fill="#26004F"/>
<path id="Vector_68" opacity="0.4" d="M527.233 261.08H525.373V272.15H527.233V261.08Z" fill="#26004F"/>
<path id="Vector_69" opacity="0.4" d="M396.943 168.09H382.913V613.83H396.943V168.09Z" fill="#D16E6B"/>
<path id="Vector_70" opacity="0.4" d="M636.483 168.09H622.453V613.83H636.483V168.09Z" fill="#D16E6B"/>
<path id="Vector_71" opacity="0.4" d="M629.473 295.78V280.1H389.933V295.78H629.473Z" fill="#D16E6B"/>
<path id="Vector_72" opacity="0.4" d="M630.683 496.34V480.66H391.143V496.34H630.683Z" fill="#D16E6B"/>
<path id="Vector_73" opacity="0.4" d="M524.113 383.56H479.723V420.51H524.113V383.56Z" fill="#F6DFDF"/>
<path id="Vector_74" opacity="0.4" d="M517.203 394.2H486.633V396.27H517.203V394.2Z" fill="#D1C4E9"/>
<path id="Vector_75" opacity="0.4" d="M517.203 400.17H486.633V402.24H517.203V400.17Z" fill="#D1C4E9"/>
<path id="Vector_76" opacity="0.4" d="M517.203 406.13H486.633V408.2H517.203V406.13Z" fill="#D1C4E9"/>
<path id="Vector_77" opacity="0.4" d="M689.733 198.51H646.413V280.1H689.733V198.51Z" fill="#B39DDB"/>
<path id="Vector_78" opacity="0.4" d="M646.413 198.51H573.393V280.1H646.413V198.51Z" fill="#D1C4E9"/>
<path id="Vector_79" opacity="0.4" d="M615.443 198.51H604.373V219.18H615.443V198.51Z" fill="#B39DDB"/>
<path id="Vector_80" opacity="0.4" d="M673.613 198.51H662.543V219.18H673.613V198.51Z" fill="#303F9F"/>
<path id="Vector_81" opacity="0.4" d="M636.763 261.15L634.423 266.34H635.073V275.44H638.463V266.34H639.113L636.763 261.15Z" fill="#26004F"/>
<path id="Vector_82" opacity="0.4" d="M631.473 261.15L629.133 266.34H629.773V275.44H633.173V266.34H633.823L631.473 261.15Z" fill="#26004F"/>
<path id="Vector_83" opacity="0.4" d="M650.523 266.68H649.813V275.44H650.523V266.68Z" fill="#26004F"/>
<path id="Vector_84" opacity="0.4" d="M662.523 266.68H661.813V275.44H662.523V266.68Z" fill="#26004F"/>
<path id="Vector_85" opacity="0.4" d="M652.093 268.96H651.383V275.44H652.093V268.96Z" fill="#26004F"/>
<path id="Vector_86" opacity="0.4" d="M653.483 268.96H652.393V275.44H653.483V268.96Z" fill="#26004F"/>
<path id="Vector_87" opacity="0.4" d="M657.373 268.96H656.663V275.44H657.373V268.96Z" fill="#26004F"/>
<path id="Vector_88" opacity="0.4" d="M658.753 268.96H657.663V275.44H658.753V268.96Z" fill="#26004F"/>
<path id="Vector_89" opacity="0.4" d="M654.693 268.28H653.983V275.44H654.693V268.28Z" fill="#26004F"/>
<path id="Vector_90" opacity="0.4" d="M656.073 268.96H654.983V275.44H656.073V268.96Z" fill="#26004F"/>
<path id="Vector_91" opacity="0.4" d="M659.883 268.96H659.173V275.44H659.883V268.96Z" fill="#26004F"/>
<path id="Vector_92" opacity="0.4" d="M661.263 268.96H660.173V275.44H661.263V268.96Z" fill="#26004F"/>
<path id="Vector_93" opacity="0.4" d="M754.883 149.19H719.933V280.1H754.883V149.19Z" fill="#B39DDB"/>
<path id="Vector_94" opacity="0.4" d="M719.933 149.19H661.023V280.1H719.933V149.19Z" fill="#D1C4E9"/>
<path id="Vector_95" opacity="0.4" d="M694.943 149.19H686.013V230.95H694.943V149.19Z" fill="#B39DDB"/>
<path id="Vector_96" opacity="0.4" d="M741.873 149.19H732.943V230.95H741.873V149.19Z" fill="#303F9F"/>
<path id="Vector_97" opacity="0.4" d="M712.153 264.81L710.263 269H710.783V276.34H713.523V269H714.043L712.153 264.81Z" fill="#26004F"/>
<path id="Vector_98" opacity="0.4" d="M707.883 264.81L705.993 269H706.513V276.34H709.253V269H709.773L707.883 264.81Z" fill="#26004F"/>
<path id="Vector_99" opacity="0.4" d="M723.243 269.28H722.673V276.34H723.243V269.28Z" fill="#26004F"/>
<path id="Vector_100" opacity="0.4" d="M732.923 269.28H732.353V276.34H732.923V269.28Z" fill="#26004F"/>
<path id="Vector_101" opacity="0.4" d="M724.513 271.11H723.943V276.34H724.513V271.11Z" fill="#26004F"/>
<path id="Vector_102" opacity="0.4" d="M725.633 271.11H724.753V276.34H725.633V271.11Z" fill="#26004F"/>
<path id="Vector_103" opacity="0.4" d="M728.773 271.11H728.203V276.34H728.773V271.11Z" fill="#26004F"/>
<path id="Vector_104" opacity="0.4" d="M729.893 271.11H729.013V276.34H729.893V271.11Z" fill="#26004F"/>
<path id="Vector_105" opacity="0.4" d="M726.603 270.56H726.033V276.34H726.603V270.56Z" fill="#26004F"/>
<path id="Vector_106" opacity="0.4" d="M727.723 271.11H726.843V276.34H727.723V271.11Z" fill="#26004F"/>
<path id="Vector_107" opacity="0.4" d="M730.793 271.11H730.223V276.34H730.793V271.11Z" fill="#26004F"/>
<path id="Vector_108" opacity="0.4" d="M731.913 271.11H731.033V276.34H731.913V271.11Z" fill="#26004F"/>
<path id="Vector_109" opacity="0.4" d="M567.693 168.09H553.663V613.83H567.693V168.09Z" fill="#D16E6B"/>
<path id="Vector_110" opacity="0.4" d="M807.233 168.09H793.203V613.83H807.233V168.09Z" fill="#D16E6B"/>
<path id="Vector_111" opacity="0.4" d="M800.213 295.78V280.1H560.673V295.78H800.213Z" fill="#D16E6B"/>
<path id="Vector_112" opacity="0.4" d="M777.293 341.39H703.343V480.66H777.293V341.39Z" fill="#B39DDB"/>
<path id="Vector_113" opacity="0.4" d="M703.343 341.39H578.693V480.66H703.343V341.39Z" fill="#D1C4E9"/>
<path id="Vector_114" opacity="0.4" d="M650.463 341.39H631.563V376.67H650.463V341.39Z" fill="#B39DDB"/>
<path id="Vector_115" opacity="0.4" d="M749.763 341.39H730.863V376.67H749.763V341.39Z" fill="#303F9F"/>
<path id="Vector_116" opacity="0.4" d="M686.873 448.32L682.873 457.18H683.973V472.71H689.763V457.18H690.873L686.873 448.32Z" fill="#26004F"/>
<path id="Vector_117" opacity="0.4" d="M677.833 448.32L673.833 457.18H674.933V472.71H680.733V457.18H681.833L677.833 448.32Z" fill="#26004F"/>
<path id="Vector_118" opacity="0.4" d="M710.353 457.76H709.143V472.71H710.353V457.76Z" fill="#26004F"/>
<path id="Vector_119" opacity="0.4" d="M730.823 457.76H729.613V472.71H730.823V457.76Z" fill="#26004F"/>
<path id="Vector_120" opacity="0.4" d="M713.033 461.64H711.823V472.71H713.033V461.64Z" fill="#26004F"/>
<path id="Vector_121" opacity="0.4" d="M715.393 461.64H713.533V472.71H715.393V461.64Z" fill="#26004F"/>
<path id="Vector_122" opacity="0.4" d="M722.043 461.64H720.833V472.71H722.043V461.64Z" fill="#26004F"/>
<path id="Vector_123" opacity="0.4" d="M724.403 461.64H722.543V472.71H724.403V461.64Z" fill="#26004F"/>
<path id="Vector_124" opacity="0.4" d="M717.463 460.48H716.253V472.7H717.463V460.48Z" fill="#26004F"/>
<path id="Vector_125" opacity="0.4" d="M719.823 461.64H717.963V472.71H719.823V461.64Z" fill="#26004F"/>
<path id="Vector_126" opacity="0.4" d="M726.323 461.64H725.113V472.71H726.323V461.64Z" fill="#26004F"/>
<path id="Vector_127" opacity="0.4" d="M728.683 461.64H726.823V472.71H728.683V461.64Z" fill="#26004F"/>
<path id="Vector_128" opacity="0.4" d="M801.433 496.35V480.67H561.893V496.35H801.433Z" fill="#D16E6B"/>
<path id="Vector_129" opacity="0.4" d="M948.133 341.39H874.183V480.66H948.133V341.39Z" fill="#B39DDB"/>
<path id="Vector_130" opacity="0.4" d="M874.183 341.39H749.533V480.66H874.183V341.39Z" fill="#D1C4E9"/>
<path id="Vector_131" opacity="0.4" d="M821.303 341.39H802.403V376.67H821.303V341.39Z" fill="#B39DDB"/>
<path id="Vector_132" opacity="0.4" d="M920.603 341.39H901.703V376.67H920.603V341.39Z" fill="#303F9F"/>
<path id="Vector_133" opacity="0.4" d="M857.713 448.32L853.713 457.18H854.813V472.71H860.613V457.18H861.713L857.713 448.32Z" fill="#26004F"/>
<path id="Vector_134" opacity="0.4" d="M848.673 448.32L844.673 457.18H845.773V472.71H851.573V457.18H852.673L848.673 448.32Z" fill="#26004F"/>
<path id="Vector_135" opacity="0.4" d="M881.193 457.76H879.983V472.71H881.193V457.76Z" fill="#26004F"/>
<path id="Vector_136" opacity="0.4" d="M901.663 457.76H900.453V472.71H901.663V457.76Z" fill="#26004F"/>
<path id="Vector_137" opacity="0.4" d="M883.873 461.64H882.663V472.71H883.873V461.64Z" fill="#26004F"/>
<path id="Vector_138" opacity="0.4" d="M886.243 461.64H884.383V472.71H886.243V461.64Z" fill="#26004F"/>
<path id="Vector_139" opacity="0.4" d="M892.883 461.64H891.673V472.71H892.883V461.64Z" fill="#26004F"/>
<path id="Vector_140" opacity="0.4" d="M895.243 461.64H893.383V472.71H895.243V461.64Z" fill="#26004F"/>
<path id="Vector_141" opacity="0.4" d="M888.303 460.48H887.093V472.7H888.303V460.48Z" fill="#26004F"/>
<path id="Vector_142" opacity="0.4" d="M890.663 461.64H888.803V472.71H890.663V461.64Z" fill="#26004F"/>
<path id="Vector_143" opacity="0.4" d="M897.163 461.64H895.953V472.71H897.163V461.64Z" fill="#26004F"/>
<path id="Vector_144" opacity="0.4" d="M899.523 461.64H897.663V472.71H899.523V461.64Z" fill="#26004F"/>
<path id="Vector_145" opacity="0.4" d="M946.923 140.83H872.973V280.1H946.923V140.83Z" fill="#B39DDB"/>
<path id="Vector_146" opacity="0.4" d="M872.973 140.83H748.323V280.1H872.973V140.83Z" fill="#D1C4E9"/>
<path id="Vector_147" opacity="0.4" d="M820.103 140.83H801.203V176.11H820.103V140.83Z" fill="#B39DDB"/>
<path id="Vector_148" opacity="0.4" d="M919.393 140.83H900.493V176.11H919.393V140.83Z" fill="#303F9F"/>
<path id="Vector_149" opacity="0.4" d="M856.503 247.76L852.503 256.62H853.603V272.14L859.403 272.15V256.62H860.503L856.503 247.76Z" fill="#26004F"/>
<path id="Vector_150" opacity="0.4" d="M847.463 247.76L843.463 256.62H844.563V272.14H850.363V256.62H851.473L847.463 247.76Z" fill="#26004F"/>
<path id="Vector_151" opacity="0.4" d="M879.983 257.2H878.773V272.15H879.983V257.2Z" fill="#26004F"/>
<path id="Vector_152" opacity="0.4" d="M900.453 257.2H899.243V272.15H900.453V257.2Z" fill="#26004F"/>
<path id="Vector_153" opacity="0.4" d="M882.663 261.08H881.453V272.15H882.663V261.08Z" fill="#26004F"/>
<path id="Vector_154" opacity="0.4" d="M885.033 261.08H883.173V272.15H885.033V261.08Z" fill="#26004F"/>
<path id="Vector_155" opacity="0.4" d="M891.673 261.08H890.463V272.15H891.673V261.08Z" fill="#26004F"/>
<path id="Vector_156" opacity="0.4" d="M894.043 261.08H892.183V272.15H894.043V261.08Z" fill="#26004F"/>
<path id="Vector_157" opacity="0.4" d="M887.093 259.92H885.883V272.14H887.093V259.92Z" fill="#26004F"/>
<path id="Vector_158" opacity="0.4" d="M889.463 261.08H887.603V272.15H889.463V261.08Z" fill="#26004F"/>
<path id="Vector_159" opacity="0.4" d="M895.953 261.08H894.743V272.15H895.953V261.08Z" fill="#26004F"/>
<path id="Vector_160" opacity="0.4" d="M898.313 261.08H896.453V272.15H898.313V261.08Z" fill="#26004F"/>
<path id="Vector_161" opacity="0.4" d="M738.533 168.09H724.503V613.83H738.533V168.09Z" fill="#D16E6B"/>
<path id="Vector_162" opacity="0.4" d="M978.073 168.09H964.043V613.83H978.073V168.09Z" fill="#D16E6B"/>
<path id="Vector_163" opacity="0.4" d="M971.063 295.78V280.1H731.523V295.78H971.063Z" fill="#D16E6B"/>
<path id="Vector_164" opacity="0.4" d="M972.273 496.34V480.66H732.733V496.34H972.273Z" fill="#D16E6B"/>
<path id="Vector_165" opacity="0.4" d="M865.703 383.56H821.313V420.51H865.703V383.56Z" fill="#F6DFDF"/>
<path id="Vector_166" opacity="0.4" d="M858.793 394.2H828.223V396.27H858.793V394.2Z" fill="#D1C4E9"/>
<path id="Vector_167" opacity="0.4" d="M858.793 400.17H828.223V402.24H858.793V400.17Z" fill="#D1C4E9"/>
<path id="Vector_168" opacity="0.4" d="M858.793 406.13H828.223V408.2H858.793V406.13Z" fill="#D1C4E9"/>
</g>
<path id="Vector_169" d="M0.242852 669.92C0.125159 669.996 0.0422701 670.115 0.0122912 670.252C-0.0176877 670.389 0.00767941 670.532 0.0828516 670.65C3.83285 676.36 106.913 674.92 128.583 675.01C201.363 675.32 274.133 674.55 346.883 674.26C399.253 674.05 509.583 680.67 553.933 673.26C615.023 663.03 512.123 662.86 475.583 662.86C345.513 662.86 217.253 659.42 88.5029 663.1C73.9929 663.49 4.91285 665.7 0.242852 669.92Z" fill="url(#paint0_linear_124_361)"/>
<path id="Vector_170" d="M337.913 556.07L337.393 553.58L350.873 550.58C351.873 550.32 352.873 550.1 353.873 549.91L354.283 549.82C358.098 549.125 361.984 548.907 365.853 549.17C394.513 551.17 416.303 578.73 414.533 610.75C413.103 636.5 396.863 657.27 375.663 663.4H375.543C373.687 663.937 371.8 664.357 369.893 664.66L360.993 666.66L360.683 665.18L359.423 665.12C330.763 663.12 308.973 635.57 310.743 603.55C311.913 582.81 322.683 565.3 337.913 556.07Z" fill="#26004F"/>
<path id="Vector_171" d="M347.273 668.71C375.986 668.71 399.263 642.702 399.263 610.62C399.263 578.538 375.986 552.53 347.273 552.53C318.56 552.53 295.283 578.538 295.283 610.62C295.283 642.702 318.56 668.71 347.273 668.71Z" fill="#211941"/>
<path id="Vector_172" d="M326.393 609.18C325.673 622.06 334.443 633.18 345.983 633.95C357.523 634.72 367.443 624.95 368.153 612.07C368.863 599.19 360.103 588.07 348.563 587.3C337.023 586.53 327.103 596.29 326.393 609.18Z" fill="#E8E6FD"/>
<path id="Vector_173" d="M145.813 456H238.093L244.283 463.54C248.813 469.08 254.653 472.13 260.703 472.13H306.873C317.683 472.13 326.453 484.27 326.453 499.25V512.81C326.453 520.71 331.073 527.11 336.773 527.11H389.623C395.573 527.11 397.363 538.31 391.973 541.79C373.603 553.63 360.973 577.79 358.493 605.64L356.703 626C355.703 636.89 349.073 645.08 341.153 645.08H244.153C235.833 645.08 229.083 635.72 229.083 624.18C229.083 583.49 205.273 550.51 175.903 550.51H134.803C124.603 550.51 116.133 539.64 115.333 525.51C114.663 513.69 114.953 498.97 118.183 484.29C121.903 467.51 133.103 456 145.813 456Z" fill="#C68322"/>
<path id="Vector_174" d="M43.7429 540.63V585.33C43.7429 602.27 55.9929 616 71.1929 616H164.873V540.63H43.7429Z" fill="#C68322"/>
<path id="Vector_175" d="M434.453 259.19H429.513H422.573V267.52V612.54H429.513V267.52H434.453V612.54H455.323V267.52V259.19H434.453Z" fill="#2E88BF"/>
<path id="Vector_176" d="M428.933 259.19H423.993H417.053V267.52V612.54H423.993V267.52H428.933V612.54H449.803V267.52V259.19H428.933Z" fill="#26004F"/>
<path id="Vector_177" d="M205.293 464.78V395.51C205.273 379.695 206.275 363.896 208.293 348.21L216.863 250.45C218.713 236.16 227.693 225.76 238.173 225.76H311.993C342.133 225.76 368.893 252.51 378.403 292.15L395.533 395.3C399.733 412.945 401.845 431.022 401.823 449.16V449.38H390.993V447.29C391.011 428.942 388.849 410.658 384.553 392.82L368.773 296.33C360.553 262.49 337.653 239.69 311.883 239.69H245.343C238.553 239.69 232.903 246.9 232.343 256.28L228.153 358.54C227.713 365.827 227.496 373.127 227.503 380.44V464.78H205.293Z" fill="#26004F"/>
<path id="Vector_178" d="M201.073 464.78V395.51C201.058 379.695 202.06 363.896 204.073 348.21L212.653 250.45C214.503 236.16 223.483 225.76 233.953 225.76H307.693C337.833 225.76 364.593 252.51 374.103 292.15L391.313 395.3C395.514 412.945 397.625 431.022 397.603 449.16V449.38H386.783V447.29C386.801 428.942 384.639 410.658 380.343 392.82L364.563 296.33C356.343 262.49 333.443 239.69 307.673 239.69H241.123C234.333 239.69 228.683 246.9 228.123 256.28L223.993 358.54C223.553 365.827 223.336 373.127 223.343 380.44V464.78H201.073Z" fill="#211941"/>
<path id="Vector_179" d="M251.833 456.06L229.833 455.63C229.833 455.63 222.423 447.56 216.603 447.56C216.603 447.56 224.013 410.91 213.423 393.31C202.833 375.71 192.263 379.38 192.263 379.38C173.803 374.38 168.453 379.38 168.453 379.38C168.453 379.38 181.343 427.17 182.453 436.79C183.563 446.41 189.593 456.74 195.113 462C196.208 463.034 197.614 463.678 199.113 463.83C199.943 468.55 200.833 471.91 201.773 473.22C207.593 481.28 267.383 478.35 267.383 478.35V477.88C267.363 466 260.443 456.22 251.833 456.06Z" fill="#211941"/>
<path id="Vector_180" d="M267.063 292.42C267.063 292.42 263.913 300.73 266.563 303.48C269.213 306.23 273.293 300.88 273.493 298.29C273.693 295.7 270.823 290.43 267.063 292.42Z" fill="#26004F"/>
<path id="Vector_181" d="M291.263 376C289.943 355.89 289.593 332.91 289.593 332.91C289.593 332.91 269.323 354.18 265.063 374.34C262.063 388.58 270.533 403.02 279.523 404.2C295.853 410.2 324.143 401.92 324.343 391.97C324.473 385.63 308.343 383.97 297.343 382.97C295.671 382.711 294.143 381.87 293.031 380.594C291.919 379.319 291.292 377.692 291.263 376Z" fill="#FF96A9"/>
<path id="Vector_182" d="M282.393 286.31C282.393 286.31 281.543 279.73 275.543 278.21C270.443 276.92 260.773 284.75 263.333 292.51C264.029 293.937 264.888 295.28 265.893 296.51L271.143 292.34L282.393 286.31Z" fill="#1565C0"/>
<path id="Vector_183" d="M285.603 356.43L264.533 378.19C263.593 391.08 271.333 403.14 279.533 404.19C279.673 404.25 279.823 404.29 279.963 404.34C285.763 388.82 285.603 356.43 285.603 356.43Z" fill="#1D4280"/>
<path id="Vector_184" d="M270.493 290.57C270.493 290.57 280.123 280.75 287.133 282.57C294.143 284.39 282.773 292.7 280.953 293.57C279.133 294.44 270.493 290.57 270.493 290.57Z" fill="#0D47A1"/>
<path id="Vector_185" d="M220.903 410.72C220.903 410.72 203.823 447.24 231.053 462.63C248.053 472.24 267.283 471.63 279.343 469.81C286.623 468.71 293.723 472.89 297.093 480.18C307.093 501.73 327.603 542.73 340.623 544.98C358.343 548.05 362.273 536.32 361.293 527.89C360.313 519.46 338.653 461.06 312.083 442.89C296.603 432.28 266.293 422.73 266.293 422.73L220.903 410.72Z" fill="#0D47A1"/>
<path id="Vector_186" d="M281.993 409.6L324.133 384.38C326.343 383.06 328.903 385.31 328.263 388.02L322.153 414.11C321.742 415.837 321.988 417.655 322.843 419.21L350.103 468.14L355.993 532.65L325.143 538.14L309.593 425.66C309.459 424.386 308.937 423.183 308.099 422.214C307.26 421.245 306.145 420.556 304.903 420.24L282.833 415.58C280.173 415 279.623 411 281.993 409.6Z" fill="#26004F"/>
<path id="Vector_187" d="M267.813 430.39C266.363 417.07 275.383 383.99 275.383 383.99C275.383 383.99 293.873 340.31 289.283 332.18C277.833 311.86 244.393 299.64 231.503 314.89C227.113 320.09 223.173 331.5 220.273 339.58C213.363 358.78 206.273 414.07 206.273 414.07C215.843 420.06 238.993 430.88 267.813 430.39Z" fill="#1D4280"/>
<path id="Vector_188" d="M268.193 297.87L260.143 313.47C259.763 315.92 270.583 324.87 274.503 322.4C275.643 321.68 275.703 319.28 275.123 316.56L271.463 301.66L268.193 297.87Z" fill="#FF96A9"/>
<path id="Vector_189" d="M272.203 304.65C269.853 303.73 266.653 302.43 266.653 302.43C266.517 305.363 267.393 308.255 269.133 310.62C270.472 312.458 272.398 313.784 274.593 314.38L272.203 304.65Z" fill="#26004F"/>
<path id="Vector_190" d="M271.993 291.84L267.213 300.7C266.541 302.155 266.413 303.802 266.851 305.343C267.29 306.884 268.266 308.217 269.603 309.1C271.627 310.306 273.919 310.993 276.273 311.1C278.793 311.4 280.593 309.1 281.273 305.5C281.997 301.642 282.122 297.696 281.643 293.8C280.993 288.24 275.433 286.32 271.993 291.84Z" fill="#FF96A9"/>
<path id="Vector_191" d="M281.363 303.49C281.339 303.746 281.246 303.991 281.092 304.197C280.939 304.404 280.731 304.564 280.493 304.66C279.977 304.716 279.459 304.578 279.04 304.273C278.62 303.968 278.329 303.518 278.223 303.01C279.244 303.306 280.3 303.467 281.363 303.49Z" fill="white"/>
<path id="Vector_192" d="M268.083 304.89C267.343 303.84 267.273 301.75 267.273 300.51L267.163 300.7C266.491 302.155 266.363 303.802 266.801 305.343C267.24 306.884 268.216 308.217 269.553 309.1C271.577 310.306 273.869 310.993 276.223 311.1C276.977 311.164 277.734 311.002 278.396 310.635C279.058 310.269 279.597 309.713 279.943 309.04C279.443 309 272.063 310.54 268.083 304.89Z" fill="#932A3F"/>
<path id="Vector_193" d="M270.253 296.44C270.253 296.44 271.743 296.69 272.153 295.64C272.563 294.59 273.273 291.86 273.273 291.86C273.273 291.86 282.103 292.76 283.853 291.48C285.603 290.2 286.853 287.8 284.063 287.01C281.273 286.22 273.543 287.28 269.813 291.22C266.083 295.16 267.773 297 270.253 296.44Z" fill="#26004F"/>
<path id="Vector_194" d="M279.853 372.78C279.313 366.99 279.033 361.19 279.633 358.18C280.633 353.39 281.913 335.44 282.713 323.58C280.945 321.772 279.043 320.101 277.023 318.58L273.253 348.13L257.393 345.44C257.553 342.44 256.683 319.36 256.283 308.92C254.084 308.448 251.85 308.16 249.603 308.06C250.493 316.13 248.023 333.51 245.743 346.96C244.004 358.006 237.987 367.925 228.993 374.57L209.993 388.15C207.723 402.52 206.233 414.07 206.233 414.07C215.813 420.07 238.933 430.88 267.783 430.39C266.333 417.07 275.353 383.99 275.353 383.99C275.353 383.99 277.353 379.33 279.853 372.78Z" fill="#1565C0"/>
<path id="Vector_195" d="M282.713 323.58C281.663 322.51 280.553 321.49 279.403 320.51C278.069 326.974 277.161 333.518 276.683 340.1C276.193 349.63 280.513 367.22 267.683 378.95C254.853 390.68 240.333 386 249.073 408C252.073 415.63 254.673 423.37 257.173 430C260.613 430.26 264.173 430.38 267.813 430.32C266.363 417 275.383 383.92 275.383 383.92C275.383 383.92 277.383 379.26 279.853 372.71C279.313 366.92 279.033 361.12 279.633 358.11C280.593 353.39 281.913 335.44 282.713 323.58Z" fill="#0D47A1"/>
<path id="Vector_196" d="M270.693 296.2C270.527 295.584 270.417 294.955 270.363 294.32C270.253 293.11 269.843 291.32 268.313 292.4C266.093 293.96 266.993 300.4 269.723 300.56C271.743 300.7 271.143 297.74 270.693 296.2Z" fill="#FF96A9"/>
<path id="Vector_197" d="M233.333 406.25C233.333 406.25 245.333 420.01 268.053 420.37C268.513 415.87 269.343 410.87 270.273 406.05L233.333 406.25Z" fill="#26004F"/>
<path id="Vector_198" d="M242.393 337.65L244.493 382.62L226.333 376.26L242.393 337.65Z" fill="#1D4280"/>
<path id="Vector_199" d="M240.523 314.2C221.663 307.7 196.953 374.39 217.653 399.84C234.653 420.74 302.433 418.1 301.243 399.01C300.833 392.57 242.393 379.93 238.793 375.77C235.193 371.61 254.383 319 240.523 314.2Z" fill="#FF96A9"/>
<path id="Vector_200" d="M338.113 539.25C338.403 538.18 336.703 530.74 336.673 529.96C336.648 528.587 336.956 527.229 337.571 526.001C338.186 524.773 339.089 523.713 340.203 522.91C341.583 521.83 348.013 517.83 349.383 518.84C350.753 519.85 348.613 528.95 350.683 530.76C351.583 531.54 363.683 532.96 365.293 537.89C366.043 540.19 343.763 549.32 339.353 548.49C337.043 548.05 337.143 542.76 338.113 539.25Z" fill="#211941"/>
<path id="Vector_201" d="M297.793 397.4C297.793 397.4 299.993 394.22 302.633 393.09C306.493 391.44 309.463 391.62 308.493 393.75C307.523 395.88 307.633 398.22 309.683 398.41C311.733 398.6 317.073 394.01 317.153 396.76C317.233 399.51 309.933 405.19 305.583 405.92C301.233 406.65 291.723 403.81 297.793 397.4Z" fill="#FF96A9"/>
<path id="Vector_202" d="M207.763 410.72C207.763 410.72 190.683 447.24 217.913 462.63C237.123 473.49 268.013 465.2 284.533 459.38C290.533 457.26 296.893 461.38 298.223 468.25C302.933 492.74 311.843 535.83 325.223 538.14C342.943 541.21 349.173 536.32 348.223 527.89C347.273 519.46 340.023 443.35 313.443 425.13C297.963 414.52 253.223 422.69 253.223 422.69L207.763 410.72Z" fill="#1565C0"/>
<path id="Vector_203" d="M341.343 484.52C340.093 478.8 338.633 472.93 336.943 467.18C328.103 473.84 309.713 478.85 300.763 481C301.573 484.85 302.453 488.86 303.403 492.89C318.283 495.92 334.153 488.53 341.343 484.52Z" fill="#F9EBBB"/>
<path id="Vector_204" d="M342.593 490.5C332.433 496.43 313.113 500.73 305.763 502.22C306.643 505.52 307.583 508.76 308.583 511.86C322.143 515.09 336.903 510.11 345.373 506.35C344.623 501.5 343.713 496.13 342.593 490.5Z" fill="#F9EBBB"/>
<path id="Vector_205" d="M348.153 527.89C347.153 519.46 339.953 443.35 313.373 425.13C302.533 417.7 277.323 419.48 263.203 421.22C268.033 422 274.013 422.83 280.493 423.42C296.493 424.89 301.573 418.78 306.493 429.53C311.413 440.28 317.023 444.46 318.263 461.06C319.503 477.66 322.263 481.51 325.563 497.31C328.863 513.11 339.343 535.04 341.343 538.24C346.763 536.67 348.733 532.91 348.153 527.89Z" fill="#0D47A1"/>
<path id="Vector_206" d="M336.993 467.18C332.853 470.3 326.603 473.06 320.223 475.33C321.333 480.66 322.733 485.04 324.323 491.62C330.27 489.926 335.999 487.544 341.393 484.52C340.093 478.8 338.633 472.93 336.993 467.18Z" fill="#1565C0"/>
<path id="Vector_207" d="M345.083 504.52C344.983 503.92 344.893 503.31 344.793 502.7V502.62C344.703 502.04 344.603 501.45 344.503 500.86V500.66C344.413 500.11 344.313 499.56 344.213 499.01C344.213 498.9 344.213 498.79 344.163 498.67C344.063 498.14 343.973 497.6 343.873 497.06C343.873 496.93 343.873 496.8 343.803 496.67C343.713 496.14 343.613 495.6 343.513 495.06C343.513 494.92 343.463 494.78 343.433 494.65L343.103 492.88L343.043 492.6C342.913 491.91 342.783 491.22 342.643 490.52C338.153 493.14 331.863 495.45 325.643 497.33C326.724 502.161 328.113 506.917 329.803 511.57C335.18 510.364 340.423 508.622 345.453 506.37C345.283 505.75 345.183 505.14 345.083 504.52Z" fill="#1565C0"/>
<path id="Vector_208" d="M310.663 446H398.303C402.823 446 406.873 450 408.453 456C412.623 471.84 419.343 503.68 416.283 526.66L322.963 527.51L310.663 446Z" fill="#211941"/>
<path id="Vector_209" d="M168.423 379.38C168.423 379.38 172.133 465.16 177.953 473.22C183.773 481.28 243.553 478.35 243.553 478.35V477.88C243.553 465.95 236.643 456.22 228.023 456.06L206.023 455.63C206.023 455.63 198.613 447.56 192.793 447.56C192.793 447.56 200.203 410.91 189.623 393.31C179.043 375.71 168.423 379.38 168.423 379.38Z" fill="#26004F"/>
<path id="Vector_210" d="M127.693 464.78V395.51C127.678 379.695 128.68 363.896 130.693 348.21L139.273 250.45C141.123 236.16 150.093 225.76 160.573 225.76H234.303C264.453 225.76 291.213 252.51 300.723 292.15L317.993 395.3C322.189 412.946 324.3 431.022 324.283 449.16V449.38H313.413V447.29C313.438 428.943 311.282 410.658 306.993 392.82L291.193 296.33C282.963 262.49 260.073 239.69 234.293 239.69H167.753C160.963 239.69 155.313 246.9 154.753 256.28L150.563 358.54C150.129 365.827 149.913 373.127 149.913 380.44V464.78H127.693Z" fill="#2E88BF"/>
<path id="Vector_211" d="M123.473 464.78V395.51C123.458 379.695 124.46 363.896 126.473 348.21L135.053 250.45C136.903 236.16 145.873 225.76 156.353 225.76H230.083C260.233 225.76 286.993 252.51 296.503 292.15L313.723 395.3C317.912 412.946 320.016 431.023 319.993 449.16V449.38H309.183V447.29C309.204 428.943 307.046 410.658 302.753 392.82L286.993 296.33C278.763 262.49 255.873 239.69 230.093 239.69H163.523C156.743 239.69 151.093 246.9 150.523 256.28L146.333 358.54C145.899 365.827 145.683 373.127 145.683 380.44V464.78H123.473Z" fill="#26004F"/>
<path id="Vector_212" d="M69.8429 456H162.123L168.313 463.54C172.843 469.08 178.683 472.13 184.733 472.13H230.903C241.713 472.13 250.483 484.27 250.483 499.25V512.81C250.483 520.71 255.103 527.11 260.803 527.11H362.693C368.643 527.11 365.033 541.79 365.033 541.79C346.663 553.63 284.973 577.79 282.523 605.64L280.733 626C279.733 636.89 273.103 645.08 265.183 645.08H168.183C159.863 645.08 153.113 635.72 153.113 624.18C153.113 583.49 129.303 550.51 99.9329 550.51H58.8529C48.6529 550.51 40.1829 539.64 39.3829 525.51C38.7129 513.69 39.0029 498.97 42.2329 484.29C45.9329 467.51 57.1329 456 69.8429 456Z" fill="#F5A729"/>
<path id="Vector_213" d="M280.733 626L282.523 605.58C282.823 602.14 283.283 598.75 283.893 595.44C265.893 596.6 245.403 597.44 223.793 597.44C156.103 597.44 177.533 564.25 165.793 543.03C154.053 521.81 128.793 527.79 84.6327 524.81C57.7527 523 44.9527 517.64 39.0527 513.72C39.0527 517.88 39.1227 521.84 39.3327 525.52C40.1327 539.61 48.6027 550.52 58.8027 550.52H99.9927C129.363 550.52 153.173 583.52 153.173 624.19C153.173 635.73 159.923 645.09 168.243 645.09H265.243C273.103 645.12 279.773 636.93 280.733 626Z" fill="#C68322"/>
<path id="Vector_214" d="M241.993 645.12C241.993 645.12 234.563 602.38 253.683 572.27C272.803 542.16 302.263 538.78 323.233 542.41C344.203 546.04 349.993 556 349.993 556L278.993 645.12H241.993Z" fill="#AB4127"/>
<path id="Vector_215" d="M81.7929 556.07L81.2729 553.58L94.7529 550.58C95.7529 550.32 96.7529 550.1 97.7529 549.91L98.1629 549.82C101.978 549.125 105.864 548.907 109.733 549.17C138.393 551.17 160.183 578.73 158.413 610.75C156.983 636.5 140.743 657.27 119.543 663.4H119.423C117.568 663.937 115.681 664.357 113.773 664.66L104.873 666.66L104.563 665.18L103.303 665.12C74.6429 663.12 52.8429 635.57 54.6229 603.55C55.7929 582.81 66.5629 565.3 81.7929 556.07Z" fill="#26004F"/>
<path id="Vector_216" d="M91.1528 668.71C119.866 668.71 143.143 642.702 143.143 610.62C143.143 578.538 119.866 552.53 91.1528 552.53C62.4396 552.53 39.1628 578.538 39.1628 610.62C39.1628 642.702 62.4396 668.71 91.1528 668.71Z" fill="#211941"/>
<path id="Vector_217" d="M70.2728 609.18C69.5528 622.06 78.2728 633.18 89.8528 633.95C101.433 634.72 111.313 624.95 112.033 612.07C112.753 599.19 103.973 588.07 92.4428 587.3C80.9128 586.53 70.9928 596.29 70.2728 609.18Z" fill="#E8E6FD"/>
<path id="Vector_218" d="M293.613 556.07L293.093 553.58L306.573 550.58C307.573 550.32 308.573 550.1 309.573 549.91L309.983 549.82C313.801 549.125 317.691 548.907 321.563 549.17C350.223 551.17 372.013 578.73 370.243 610.75C368.813 636.5 352.573 657.27 331.373 663.4H331.253C329.397 663.937 327.51 664.357 325.603 664.66L316.703 666.66L316.393 665.18L315.133 665.12C286.473 663.12 264.673 635.57 266.453 603.55C267.613 582.81 278.383 565.3 293.613 556.07Z" fill="#26004F"/>
<path id="Vector_219" d="M302.973 668.71C331.686 668.71 354.963 642.702 354.963 610.62C354.963 578.538 331.686 552.53 302.973 552.53C274.26 552.53 250.983 578.538 250.983 610.62C250.983 642.702 274.26 668.71 302.973 668.71Z" fill="#211941"/>
<path id="Vector_220" d="M282.093 609.18C281.373 622.06 290.093 633.18 301.673 633.95C313.253 634.72 323.133 624.95 323.853 612.07C324.573 599.19 315.793 588.07 304.263 587.3C292.733 586.53 282.803 596.29 282.093 609.18Z" fill="#E8E6FD"/>
<path id="Vector_221" d="M412.403 550.55H373.673L349.993 524.88H410.173C417.173 524.88 422.793 531.2 422.793 538.99C422.743 545.37 418.113 550.55 412.403 550.55Z" fill="#F5A729"/>
<path id="Vector_222" d="M305.153 446H322.333C326.853 446 330.903 449.88 332.483 455.75C336.653 471.27 343.673 502.16 340.613 524.68L305.153 529.32V446Z" fill="#26004F"/>
<path id="Vector_223" d="M385.053 569C384.21 568.957 383.392 568.695 382.682 568.239C381.971 567.783 381.393 567.149 381.003 566.4C369.903 548.18 353.673 537.73 336.463 537.73H308.463C305.543 537.73 303.173 534.44 303.173 530.39C303.173 526.34 305.543 523.06 308.463 523.06H336.463C356.793 523.06 375.983 535.41 389.093 556.95C390.009 558.545 390.437 560.373 390.326 562.209C390.214 564.045 389.566 565.808 388.463 567.28C388.055 567.799 387.538 568.222 386.949 568.519C386.36 568.816 385.712 568.98 385.053 569Z" fill="#26004F"/>
<path id="Vector_224" d="M369.843 259.19H364.913H357.973V267.52V612.54H364.913V267.52H369.843V612.54H390.713V267.52V259.19H369.843Z" fill="#2E88BF"/>
<path id="Vector_225" d="M364.323 259.19H359.393H352.453V267.52V612.54H359.393V267.52H364.323V612.54H385.193V267.52V259.19H364.323Z" fill="#26004F"/>
<path id="Vector_226" d="M76.8129 492.17C76.8129 499.94 73.1129 506.24 68.5429 506.24C63.9729 506.24 60.2629 499.94 60.2629 492.17C60.2629 484.4 63.9929 478.1 68.5429 478.1C73.0929 478.1 76.8129 484.4 76.8129 492.17Z" fill="#AB4127"/>
<path id="Vector_227" d="M517.033 483.99H515.863V498.51H517.033V483.99Z" fill="#26004F"/>
<path id="Vector_228" d="M536.923 483.99H535.753V498.51H536.923V483.99Z" fill="#26004F"/>
<path id="Vector_229" d="M519.633 487.76H518.463V498.52H519.633V487.76Z" fill="#26004F"/>
<path id="Vector_230" d="M521.943 487.76H520.133V498.52H521.943V487.76Z" fill="#26004F"/>
<path id="Vector_231" d="M528.393 487.76H527.223V498.52H528.393V487.76Z" fill="#26004F"/>
<path id="Vector_232" d="M530.693 487.76H528.883V498.52H530.693V487.76Z" fill="#26004F"/>
<path id="Vector_233" d="M523.943 486.64H522.773V498.52H523.943V486.64Z" fill="#26004F"/>
<path id="Vector_234" d="M526.243 487.76H524.433V498.52H526.243V487.76Z" fill="#26004F"/>
<path id="Vector_235" d="M532.553 487.76H531.383V498.52H532.553V487.76Z" fill="#26004F"/>
<path id="Vector_236" d="M534.853 487.76H533.043V498.52H534.853V487.76Z" fill="#26004F"/>
<path id="Vector_237" d="M517.033 349.15H515.863V363.67H517.033V349.15Z" fill="#26004F"/>
<path id="Vector_238" d="M536.923 349.15H535.753V363.67H536.923V349.15Z" fill="#26004F"/>
<path id="Vector_239" d="M519.633 352.92H518.463V363.68H519.633V352.92Z" fill="#26004F"/>
<path id="Vector_240" d="M521.943 352.92H520.133V363.68H521.943V352.92Z" fill="#26004F"/>
<path id="Vector_241" d="M528.393 352.92H527.223V363.68H528.393V352.92Z" fill="#26004F"/>
<path id="Vector_242" d="M530.693 352.92H528.883V363.68H530.693V352.92Z" fill="#26004F"/>
<path id="Vector_243" d="M523.943 351.8H522.773V363.68H523.943V351.8Z" fill="#26004F"/>
<path id="Vector_244" d="M526.243 352.92H524.433V363.68H526.243V352.92Z" fill="#26004F"/>
<path id="Vector_245" d="M532.553 352.92H531.383V363.68H532.553V352.92Z" fill="#26004F"/>
<path id="Vector_246" d="M534.853 352.92H533.043V363.68H534.853V352.92Z" fill="#26004F"/>
<g id="box">
<path id="Vector_247" d="M379 505.81H579.14V528.78H381.99L379 505.81Z" fill="#26004F"/>
<path id="Vector_248" d="M581.95 370.84H510.09V506.18H581.95V370.84Z" fill="#B39DDB"/>
<path id="Vector_249" d="M510.09 370.84H388.96V506.18H510.09V370.84Z" fill="#D1C4E9"/>
<path id="Vector_250" d="M458.71 370.84H440.34V405.13H458.71V370.84Z" fill="#6A1B9A"/>
<path id="Vector_251" d="M555.21 370.84H536.84V405.13H555.21V370.84Z" fill="#4A148C"/>
<path id="Vector_252" d="M494.09 474.75L490.2 483.36H491.27V498.45H496.9V483.36H497.97L494.09 474.75Z" fill="#26004F"/>
<path id="Vector_253" d="M485.3 474.75L481.41 483.36H482.49V498.44L488.12 498.45V483.36H489.19L485.3 474.75Z" fill="#26004F"/>
<path id="Vector_254" d="M581.95 236H510.09V371.34H581.95V236Z" fill="#B39DDB"/>
<path id="Vector_255" d="M510.09 236H388.96V371.34H510.09V236Z" fill="#D1C4E9"/>
<path id="Vector_256" d="M458.71 236H440.34V270.29H458.71V236Z" fill="#6A1B9A"/>
<path id="Vector_257" d="M555.21 236H536.84V270.29H555.21V236Z" fill="#4A148C"/>
<path id="Vector_258" d="M494.09 339.91L490.2 348.52H491.27V363.61H496.9V348.52H497.97L494.09 339.91Z" fill="#26004F"/>
<path id="Vector_259" d="M485.3 339.91L481.41 348.52H482.49V363.61H488.12V348.52H489.19L485.3 339.91Z" fill="#26004F"/>
<path id="Vector_260" d="M388.96 371.34V372.7L510.09 375.52L581.95 373.18V371.34H388.96Z" fill="#26004F"/>
</g>
<path id="Vector_261" d="M614.183 674.29C614.085 674.469 614.024 674.665 614.003 674.868C613.982 675.071 614.003 675.275 614.063 675.47C616.863 684.77 694.063 682.47 710.263 682.58C764.743 683.09 819.263 681.83 873.693 681.36C912.903 681.01 995.493 691.79 1028.69 679.69C1074.42 663.04 997.383 662.76 970.033 662.76C872.653 662.76 776.633 657.16 680.243 663.14C669.393 663.81 617.683 667.41 614.183 674.29Z" fill="url(#paint1_linear_124_361)"/>
<path id="Vector_262" d="M694.103 376.93C694.103 376.93 637.503 434.55 651.853 463.88C666.203 493.21 697.013 469.22 702.613 457.62C708.213 446.02 694.103 376.93 694.103 376.93Z" fill="#FF96A9"/>
<path id="Vector_263" d="M665.563 412.43C671.513 419.56 686.453 435.58 703.563 439.43C701.863 415.07 694.063 376.89 694.063 376.89C683.561 387.897 674.026 399.788 665.563 412.43Z" fill="#1D4280"/>
<path id="Vector_264" d="M761.883 476.38C761.213 456.49 761.073 453.8 760.663 441.16C759.593 408.56 765.133 382.43 760.663 377.16C744.603 358.16 695.903 364.62 688.433 383.24C681.023 401.71 692.083 430.87 692.383 474.15C692.413 478.21 761.993 479.91 761.883 476.38Z" fill="#1D4280"/>
<path id="Vector_265" d="M715.453 657.11C715.008 655.848 714.674 654.55 714.453 653.23C714.132 650.995 712.992 648.96 711.253 647.52C708.663 645.52 705.073 643.14 703.683 644.7C702.153 646.42 704.343 652.58 702.953 654.92C702.353 655.92 691.023 662.92 690.843 664.29C690.523 666.64 712.403 667.12 716.083 664.92C717.993 663.78 716.593 660.38 715.453 657.11Z" fill="#211941"/>
<path id="Vector_266" d="M773.833 656.77C773.346 655.521 772.965 654.233 772.693 652.92C772.324 650.699 771.135 648.698 769.363 647.31C766.723 645.31 763.073 643.11 761.723 644.71C760.233 646.48 762.573 652.57 761.243 654.95C760.663 655.95 749.513 663.26 749.363 664.68C749.103 667.05 770.983 666.87 774.603 664.56C776.503 663.35 775.043 660 773.833 656.77Z" fill="#211941"/>
<path id="Vector_267" d="M751.853 390.65C751.853 390.65 745.793 435.39 760.853 447.65C760.793 445.74 760.723 443.65 760.643 441.19C760.163 426.53 761.013 413.19 761.693 402.44L751.853 390.65Z" fill="#1D4280"/>
<path id="Vector_268" d="M710.993 352.61C710.993 352.61 705.613 348.48 709.153 343.53C714.433 336.16 723.673 344.4 725.023 347.41C727.023 351.9 726.173 359.99 726.173 359.99C726.173 359.99 712.903 358 710.993 352.61Z" fill="#26004F"/>
<path id="Vector_269" d="M726.213 360C726.213 360 727.073 351.91 725.063 347.42C722.223 349.53 716.063 352.32 711.893 354.11C715.373 358.36 726.213 360 726.213 360Z" fill="#26004F"/>
<path id="Vector_270" d="M723.723 355.12L731.353 370.05C731.763 372.29 722.013 380.88 718.353 378.73C717.273 378.1 717.163 375.89 717.633 373.36L720.633 359.51L723.723 355.12Z" fill="#FF96A9"/>
<path id="Vector_271" d="M719.993 362.29C722.133 361.37 725.053 360.07 725.053 360.07C725.253 362.774 724.526 365.465 722.993 367.7C721.8 369.432 720.06 370.713 718.053 371.34L719.993 362.29Z" fill="#26004F"/>
<path id="Vector_272" d="M719.933 350.48L724.553 358.48C725.207 359.806 725.366 361.323 724.999 362.755C724.632 364.188 723.764 365.442 722.553 366.29C720.718 367.467 718.625 368.181 716.453 368.37C714.133 368.72 712.453 366.65 711.653 363.37C710.891 359.834 710.675 356.202 711.013 352.6C711.493 347.45 716.573 345.5 719.933 350.48Z" fill="#FF96A9"/>
<path id="Vector_273" d="M724.553 358.5L720.103 349.85C719.693 349.24 719.103 349.37 718.633 348.96C719.163 350.69 720.173 355.87 719.903 356.63C719.183 358.63 717.583 356.75 714.903 357.43C713.461 357.757 712.126 358.445 711.023 359.43C711.139 360.776 711.35 362.113 711.653 363.43C712.423 366.72 714.133 368.79 716.453 368.43C718.625 368.241 720.718 367.527 722.553 366.35C723.774 365.5 724.648 364.239 725.015 362.798C725.383 361.356 725.218 359.83 724.553 358.5Z" fill="#26004F"/>
<path id="Vector_274" d="M716.723 358.25C715.343 359 713.839 359.494 712.283 359.71C712.283 359.71 712.663 361.64 713.853 362C715.043 362.36 716.643 360.71 716.723 358.25Z" fill="white"/>
<path id="Vector_275" d="M714.993 365.33C717.373 364.03 720.273 367.72 723.793 362.39C724.453 361.39 724.463 359.46 724.433 358.32L724.533 358.5C725.187 359.826 725.346 361.343 724.979 362.775C724.612 364.208 723.744 365.462 722.533 366.31C720.698 367.487 718.605 368.201 716.433 368.39C715.747 368.461 715.056 368.33 714.444 368.011C713.833 367.693 713.328 367.202 712.993 366.6C713.453 366.55 714.283 365.73 714.993 365.33Z" fill="#211941"/>
<path id="Vector_276" d="M720.883 353.21C721.025 352.636 721.112 352.05 721.143 351.46C721.223 350.34 721.583 348.7 723.003 349.65C725.083 351.03 724.733 356.48 722.223 356.71C720.353 356.89 720.493 354.63 720.883 353.21Z" fill="#FF96A9"/>
<path id="Vector_277" d="M711.373 357.88H711.263C710.683 358.028 710.073 358 709.51 357.798C708.947 357.597 708.457 357.232 708.103 356.75C707.818 356.32 707.633 355.833 707.56 355.322C707.487 354.812 707.529 354.292 707.683 353.8C708.013 352.64 709.173 351.89 711.023 351.62C711.543 351.603 712.05 351.791 712.434 352.142C712.819 352.493 713.052 352.98 713.083 353.5C713.253 354.66 713.633 357.32 711.373 357.88ZM710.373 352.7C709.543 352.91 708.603 353.31 708.373 354.13C708.233 354.515 708.204 354.931 708.289 355.332C708.373 355.732 708.567 356.101 708.85 356.398C709.133 356.694 709.492 356.905 709.888 357.008C710.285 357.111 710.702 357.101 711.093 356.98C712.293 356.73 712.593 355.84 712.283 353.67C712.276 353.518 712.24 353.369 712.175 353.231C712.111 353.093 712.02 352.97 711.907 352.867C711.795 352.765 711.663 352.686 711.52 352.635C711.377 352.584 711.225 352.562 711.073 352.57C710.903 352.6 710.663 352.64 710.413 352.7H710.373Z" fill="#26004F"/>
<path id="Vector_278" d="M716.273 356.66C714.013 357.22 713.493 354.6 713.273 353.47C713.14 352.941 713.195 352.383 713.428 351.89C713.662 351.398 714.059 351.002 714.553 350.77C716.343 350.13 717.653 350.28 718.343 351.19C718.654 351.598 718.867 352.07 718.968 352.573C719.068 353.076 719.053 353.594 718.923 354.09C718.764 354.7 718.447 355.256 718.002 355.703C717.557 356.149 717.002 356.469 716.393 356.63L716.273 356.66ZM713.993 353.25C714.423 355.39 714.993 356.06 716.183 355.73C716.656 355.618 717.09 355.382 717.441 355.046C717.793 354.71 718.049 354.287 718.183 353.82C718.27 353.477 718.278 353.119 718.207 352.773C718.136 352.427 717.988 352.101 717.773 351.82C717.143 350.99 715.623 351.37 714.773 351.67C714.482 351.807 714.249 352.04 714.112 352.33C713.975 352.62 713.944 352.949 714.023 353.26L713.993 353.25Z" fill="#26004F"/>
<path id="Vector_279" d="M713.703 353.21L713.813 352.69C713.527 352.59 713.218 352.579 712.925 352.658C712.633 352.736 712.371 352.901 712.173 353.13L712.503 353.48C712.893 353 713.693 353.21 713.703 353.21Z" fill="#26004F"/>
<path id="Vector_280" d="M765.043 476.35C764.933 475.85 763.483 465.92 761.343 460.78C756.933 453.47 750.413 446.1 748.343 434.78C744.563 413.65 748.853 382.65 749.183 369.28C745.897 367.996 742.48 367.077 738.993 366.54L735.923 400.54L705.583 399.54L711.333 367.89C707.705 368.787 704.179 370.057 700.813 371.68C695.953 384.53 690.873 457.15 691.273 473.93C692.333 518.93 698.333 650.25 702.373 653.51C706.413 656.77 724.603 658.33 727.593 653.51C732.033 646.36 724.593 582.71 724.463 569.97C724.363 561.76 725.003 548.91 725.733 535.36C729.273 548.72 730.373 562.36 731.333 567.62C737.203 599.77 742.393 646.62 745.563 651.05C748.733 655.48 769.563 653.14 773.303 650.19C777.043 647.24 770.053 499.55 765.043 476.35Z" fill="#1565C0"/>
<path id="Vector_281" d="M765.043 476.35C764.933 475.85 763.483 465.92 761.343 460.78C756.933 453.47 750.413 446.1 748.343 434.78C744.563 413.65 748.853 382.65 749.183 369.28C745.897 367.996 742.48 367.077 738.993 366.54L735.923 400.54L731.803 400.4C730.883 413.4 730.423 426.79 731.333 435.58C733.693 458.23 747.463 484.79 749.333 516.29C751.203 547.79 755.183 606.18 756.163 624.29C756.803 636.05 756.453 646.59 757.943 653.41C764.423 653.13 771.333 651.72 773.313 650.14C776.993 647.22 770.053 499.55 765.043 476.35Z" fill="#0D47A1"/>
<path id="Vector_282" d="M768.083 501.86C767.313 492.93 766.523 485.54 765.773 480.51L736.583 479.51C736.583 479.51 747.803 500 768.083 501.86Z" fill="#1D4280"/>
<path id="Vector_283" d="M753.843 375.88C760.313 368.49 801.133 407.52 799.423 457.23C797.713 506.94 753.063 489.73 738.123 480.52C723.183 471.31 716.803 457.05 722.563 449.41C728.323 441.77 769.563 464.19 774.373 459.14C781.993 451.14 741.763 389.66 753.843 375.88Z" fill="#FF96A9"/>
<path id="Vector_284" d="M710.673 409.57L679.133 413.57C678.349 413.723 677.653 414.172 677.19 414.823C676.726 415.475 676.531 416.279 676.643 417.07L682.233 471.79C682.253 472.179 682.351 472.56 682.519 472.911C682.688 473.262 682.925 473.576 683.216 473.835C683.508 474.093 683.847 474.291 684.216 474.418C684.584 474.544 684.974 474.596 685.363 474.57L716.903 470.57C717.689 470.423 718.387 469.978 718.852 469.327C719.316 468.676 719.51 467.871 719.393 467.08L713.803 412.36C713.786 411.969 713.692 411.586 713.524 411.232C713.357 410.879 713.12 410.563 712.828 410.303C712.536 410.042 712.195 409.843 711.825 409.718C711.455 409.592 711.063 409.542 710.673 409.57Z" fill="#2C3E50"/>
<path id="Vector_285" d="M769.223 435.76C773.283 434.76 786.313 431 790.733 420.88L766.873 430.15C767.683 432.06 768.473 433.94 769.223 435.76Z" fill="#26004F"/>
<path id="Vector_286" d="M726.233 448.86C726.233 448.86 718.933 443.67 717.663 443.54C716.393 443.41 711.163 445.14 710.003 445.86C708.843 446.58 709.803 448.5 710.003 448.54C710.525 448.771 711.024 449.053 711.493 449.38C711.563 449.49 712.843 454.7 714.233 455.74C715.623 456.78 721.673 457.67 723.123 456.37C724.573 455.07 726.233 448.86 726.233 448.86Z" fill="#FF96A9"/>
<path id="Vector_287" d="M792.513 418.71C780.933 389.28 758.513 370.56 753.843 375.88C746.353 384.42 757.273 411.88 766.123 433.01C772.353 431.79 785.993 427.74 792.513 418.71Z" fill="#1D4280"/>
<path id="Vector_288" d="M792.513 418.71C781.433 390.54 760.403 372.19 754.513 375.33C755.743 380.06 758.333 387.02 763.623 391.87C772.333 399.87 782.133 408.87 782.623 415.34C782.989 418.944 783.547 422.525 784.293 426.07C787.483 424.171 790.274 421.671 792.513 418.71Z" fill="#1D4280"/>
<path id="Vector_289" d="M725.763 535.34C725.763 535.34 724.153 521.11 724.153 516.5C724.153 509.33 719.993 509.85 716.653 515.33C713.313 520.81 716.893 551.96 713.853 574.33C710.813 596.7 718.053 640.42 711.753 644.14C709.083 645.71 704.753 646.01 700.753 646.25C701.333 650.47 701.883 653.02 702.403 653.44C706.403 656.69 724.633 658.26 727.623 653.44C732.063 646.29 724.623 582.64 724.493 569.9C724.393 561.74 724.993 548.89 725.763 535.34Z" fill="#0D47A1"/>
<path id="Vector_290" d="M923.603 464.83C923.603 464.83 855.063 576.69 862.173 584.43C863.663 586.05 866.473 590.07 872.243 584.43C893.993 563.15 938.993 495.71 938.373 489.89C937.563 482.53 923.603 464.83 923.603 464.83Z" fill="#FF96A9"/>
<path id="Vector_291" d="M1041.69 594.29C1041.69 594.29 1044.89 592.82 1048.51 597.29C1052.13 601.76 1052.79 619.37 1050.74 624.89C1048.69 630.41 1042.16 632.12 1039.62 631.79C1035.42 631.24 1035.78 627.37 1036.42 626.45C1037.06 625.53 1040.86 624.06 1041.42 623.79C1041.98 623.52 1046.11 621.03 1045.62 616.7C1045.13 612.37 1048.99 599 1041.69 594.29Z" fill="white"/>
<path id="Vector_292" d="M919.433 646.26C919.433 646.26 924.673 656.02 923.533 659.14C924.036 659.681 924.663 660.092 925.359 660.337C926.056 660.583 926.802 660.656 927.533 660.55C930.944 660.103 934.297 659.288 937.533 658.12C936.123 653.93 935.603 644.37 935.243 641.95L919.433 646.26Z" fill="white"/>
<path id="Vector_293" d="M927.333 668.07C921.385 669.062 915.363 669.543 909.333 669.51C909.286 670.016 909.286 670.524 909.333 671.03C909.523 673.73 933.983 671.53 937.923 668.59C938.983 667.8 939.393 666.32 939.323 664.59C935.435 666.098 931.423 667.262 927.333 668.07Z" fill="white"/>
<path id="Vector_294" d="M927.333 668.07C931.426 667.266 935.442 666.105 939.333 664.6C939.212 662.798 938.747 661.036 937.963 659.41C937.793 659.04 937.633 658.59 937.473 658.12C934.237 659.288 930.884 660.103 927.473 660.55C926.742 660.656 925.996 660.583 925.299 660.337C924.603 660.092 923.976 659.681 923.473 659.14C923.473 659.21 923.473 659.28 923.393 659.34C922.813 660.57 920.943 661.61 918.393 663.09C914.723 665.61 909.863 664.91 909.343 669.51C915.369 669.543 921.388 669.061 927.333 668.07Z" fill="#211941"/>
<path id="Vector_295" d="M940.473 433.78C940.473 433.78 937.273 426.78 943.763 425.27C950.253 423.76 955.633 429.97 954.283 436.16C952.358 435.57 950.365 435.234 948.353 435.16C948.353 435.16 944.963 435.96 943.693 435.66C940.643 434.93 940.473 433.78 940.473 433.78Z" fill="#1565C0"/>
<path id="Vector_296" d="M950.643 434.32C950.643 434.32 938.903 428.27 933.713 433.5C929.613 437.63 938.533 438.88 939.713 439.4C940.893 439.92 950.563 436.16 950.643 434.32Z" fill="#1565C0"/>
<path id="Vector_297" d="M896.843 510.06C910.843 485.72 923.603 464.83 923.603 464.83C923.603 464.83 937.603 482.53 938.373 489.89C938.653 492.46 931.313 508.19 919.673 525.58C914.283 525 900.863 521.24 896.843 510.06Z" fill="#1D4280"/>
<path id="Vector_298" d="M1036.9 603.84C1036.9 603.84 1036.42 594.37 1041.69 594.29C1046.96 594.21 1048.99 599.56 1048.75 605.29C1048.51 611.02 1050.31 620.14 1048.28 624.42C1046.25 628.7 1039.77 631.11 1037.62 629.5C1035.47 627.89 1036.42 622.81 1038.93 621.34L1036.9 603.84Z" fill="#211941"/>
<path id="Vector_299" d="M958.583 531.75C958.583 531.75 1004.98 540.24 1001.58 557.66C995.243 590.16 925.263 565.66 924.323 570.05C923.073 575.91 931.743 575.83 938.323 601.94C939.463 606.42 947.183 648.94 942.153 654.47C939.823 657.03 933.313 657.02 928.403 655.59C925.983 654.89 920.803 653.03 919.543 650.59C912.783 637.78 891.543 595.16 890.943 564.42C890.523 540.78 918.643 521 958.583 531.75Z" fill="#0D47A1"/>
<path id="Vector_300" d="M952.373 532.86C952.373 532.86 958.493 581.12 962.173 614.97C966.433 654.21 976.713 665.39 987.473 664.54C1003.38 663.29 1030.95 635.95 1038.93 621.37C1046.91 606.79 1042.11 595.37 1036.42 596.37C1031.98 597.21 1007.14 611.37 997.283 619.19C997.283 619.19 1019.28 565.09 1017.38 544.81C1012.7 493.4 952.373 532.86 952.373 532.86Z" fill="#1565C0"/>
<path id="Vector_301" d="M1006.47 469.54C1005.47 463.07 1003.04 449.48 981.983 446.82C960.923 444.16 939.123 439.13 926.983 457.23C914.843 475.33 934.733 488.15 943.753 512.99C947.753 524.07 944.283 540.99 956.353 544.18C968.423 547.37 999.693 552.57 1012.41 533.72C1017.18 526.65 1008.12 479.86 1006.47 469.54Z" fill="#1D4280"/>
<path id="Vector_302" d="M983.743 505.26C976.873 489.07 984.833 455.35 986.743 447.69C985.16 447.311 983.558 447.021 981.943 446.82C979.943 446.57 977.943 446.29 975.883 446.02C972.453 451.79 968.443 468.79 968.443 468.79C960.613 470.72 942.943 468.6 942.943 468.6C939.943 461.46 946.663 447.27 948.003 444.6C944.857 444.995 941.783 445.833 938.873 447.09C935.873 451.15 932.283 457.47 932.603 464.14C933.153 475.47 945.013 504.72 946.323 511.67C946.87 515.142 946.651 518.691 945.683 522.07C946.973 531.66 947.253 541.79 956.323 544.22C968.393 547.46 999.663 552.61 1012.38 533.76C1013.97 531.39 1014.02 524.54 1013.3 516.11C1006.61 517.6 989.883 519.76 983.743 505.26Z" fill="#1565C0"/>
<path id="Vector_303" d="M942.993 440.84C942.993 440.84 937.323 439.35 936.853 436.89C935.853 431.6 945.793 432.95 945.793 432.95C945.793 432.95 952.153 433.57 953.483 434.85C959.353 440.51 955.143 444.18 951.083 445.85C947.023 447.52 942.993 440.84 942.993 440.84Z" fill="#26004F"/>
<path id="Vector_304" d="M954.173 438.83L963.623 449.48C964.023 450.36 961.033 453.48 958.293 455.11C955.293 456.92 952.453 457.21 952.393 455.99L952.063 443.16L954.173 438.83Z" fill="#FF96A9"/>
<path id="Vector_305" d="M952.133 445.74C953.803 444.37 956.063 442.47 956.063 442.47C956.809 444.817 956.739 447.348 955.863 449.65C955.194 451.474 953.961 453.036 952.343 454.11L952.133 445.74Z" fill="#26004F"/>
<path id="Vector_306" d="M949.563 435.49L955.283 441.24C956.128 442.275 956.584 443.573 956.569 444.91C956.555 446.246 956.071 447.534 955.203 448.55C953.866 450.047 952.203 451.217 950.343 451.97C948.403 452.88 946.473 451.54 945.113 448.89C943.695 445.99 942.741 442.886 942.283 439.69C941.583 435.08 945.583 432.05 949.563 435.49Z" fill="#FF96A9"/>
<path id="Vector_307" d="M945.223 434.11C945.823 434.165 946.407 434.338 946.94 434.62C947.473 434.902 947.945 435.286 948.328 435.75C948.712 436.215 949.001 436.751 949.176 437.328C949.352 437.904 949.412 438.51 949.353 439.11C949.353 441.46 951.493 441.36 951.293 439.04C951.093 436.72 950.593 434.27 949.383 434.04C945.993 433.24 945.223 434.11 945.223 434.11Z" fill="#26004F"/>
<path id="Vector_308" d="M951.293 439.05C951.147 438.551 950.949 438.068 950.703 437.61C950.253 436.73 949.763 435.31 951.263 435.2C953.433 435.05 955.603 439.87 953.843 441.47C952.543 442.66 951.663 440.33 951.293 439.05Z" fill="#FF96A9"/>
<path id="Vector_309" d="M948.083 443.29C947.049 444.302 945.848 445.128 944.533 445.73C944.533 445.73 945.263 447.31 946.373 447.31C947.483 447.31 948.533 445.45 948.083 443.29Z" fill="white"/>
<path id="Vector_310" d="M948.423 449.69C950.213 447.94 953.523 450.38 955.423 444.82C955.64 443.578 955.536 442.301 955.123 441.11L955.253 441.24C956.098 442.275 956.554 443.573 956.539 444.91C956.524 446.246 956.041 447.534 955.173 448.55C953.836 450.047 952.173 451.217 950.313 451.97C949.748 452.23 949.117 452.308 948.506 452.193C947.895 452.078 947.335 451.777 946.903 451.33C947.323 451.17 947.873 450.23 948.423 449.69Z" fill="#932A3F"/>
<path id="Vector_311" d="M954.883 456.05L961.043 446.57L959.153 444.43C960.662 444.717 962.132 445.18 963.533 445.81C965.453 446.74 965.683 450.02 965.653 451.31C965.623 452.6 959.813 460.37 959.813 460.37C958.497 459.393 956.911 458.848 955.273 458.81L951.713 463C951.713 463 950.503 455.13 951.303 453.48C952.103 451.83 952.303 451.48 952.303 451.48C952.303 451.48 952.993 455.78 954.883 456.05Z" fill="#8077FA"/>
<path id="Vector_312" d="M913.353 562.41H853.013V676.04H913.353V562.41Z" fill="#B39DDB"/>
<path id="Vector_313" d="M853.003 562.41H751.303V676.04H853.003V562.41Z" fill="#D1C4E9"/>
<path id="Vector_314" d="M809.863 562.41H794.443V601.94H809.863V562.41Z" fill="#B39DDB"/>
<path id="Vector_315" d="M890.883 562.41H875.463V601.94H890.883V562.41Z" fill="#303F9F"/>
<path id="Vector_316" d="M839.573 649.66L836.303 656.89H837.203V669.55H841.933V656.89H842.833L839.573 649.66Z" fill="#26004F"/>
<path id="Vector_317" d="M832.193 649.66L828.933 656.89H829.833V669.55H834.563V656.89H835.463L832.193 649.66Z" fill="#26004F"/>
<path id="Vector_318" d="M883.883 653.19H856.503V670.5H883.883V653.19Z" fill="white"/>
<path id="Vector_319" d="M860.113 654.26H858.853V669.43H860.113V654.26Z" fill="#26004F"/>
<path id="Vector_320" d="M881.533 654.26H880.273V669.43H881.533V654.26Z" fill="#26004F"/>
<path id="Vector_321" d="M862.923 658.2H861.663V669.43H862.923V658.2Z" fill="#26004F"/>
<path id="Vector_322" d="M865.403 658.2H863.453V669.43H865.403V658.2Z" fill="#26004F"/>
<path id="Vector_323" d="M872.343 658.2H871.083V669.43H872.343V658.2Z" fill="#26004F"/>
<path id="Vector_324" d="M874.833 658.2H872.883V669.43H874.833V658.2Z" fill="#26004F"/>
<path id="Vector_325" d="M867.553 657.02H866.293V669.43H867.553V657.02Z" fill="#26004F"/>
<path id="Vector_326" d="M870.033 658.2H868.083V669.43H870.033V658.2Z" fill="#26004F"/>
<path id="Vector_327" d="M876.823 658.2H875.563V669.43H876.823V658.2Z" fill="#26004F"/>
<path id="Vector_328" d="M879.303 658.2H877.353V669.43H879.303V658.2Z" fill="#26004F"/>
<path id="Vector_329" d="M1017.38 544.85C1015.5 524.18 1006.62 518.65 996.683 519.43C991.163 529.85 986.433 540.21 986.333 545.21C986.093 557.21 998.123 591.05 990.703 615.21C988.513 622.37 991.273 623.6 997.283 619.21C997.283 619.23 1019.23 565.13 1017.38 544.85Z" fill="#0D47A1"/>
<path id="Vector_330" d="M997.283 619.23C997.543 619.04 997.833 618.81 998.123 618.57L997.283 619.23Z" fill="#DFA246"/>
<path id="Vector_331" d="M983.743 505.26C976.873 489.07 984.833 455.35 986.743 447.69C985.16 447.311 983.558 447.021 981.943 446.82L980.383 446.62C979.653 450.95 978.053 461.32 977.133 473.94C975.933 490.66 973.743 511.08 977.133 526.09C978.603 532.57 981.073 540.43 983.413 547.27C994.553 546.71 1005.88 543.35 1012.41 533.72C1014 531.35 1014.05 524.5 1013.33 516.07C1006.61 517.6 989.883 519.76 983.743 505.26Z" fill="#0D47A1"/>
<path id="Vector_332" d="M1001.91 546.39C989.203 564.59 971.913 577.39 961.073 584.2C960.973 589.08 960.983 594.05 961.073 598.97C965.413 595.97 971.963 591.29 980.753 584.38C998.253 570.68 1001.91 546.39 1001.91 546.39Z" fill="#26004F"/>
<path id="Vector_333" d="M993.613 456.27C1008.09 457.27 1013.47 514.61 1001.91 546.39C990.423 577.99 944.813 607.19 931.913 607.39C929.563 607.39 928.533 603.07 929.913 599.64C936.313 584.21 974.423 543.24 976.823 536.73C980.803 526.09 976.283 455 993.613 456.27Z" fill="#FF96A9"/>
<path id="Vector_334" d="M1007.57 528.46C1012.57 496.83 1005.78 455.95 993.753 455.09C980.933 454.18 977.173 492.36 977.173 522.63C982.053 526.6 994.593 528.69 1007.57 528.46Z" fill="#1D4280"/>
<path id="Vector_335" d="M1007.57 528.46C1012.57 496.83 1005.78 455.95 993.753 455.09C992.721 455.018 991.687 455.214 990.753 455.66C992.993 467.3 995.443 485.48 992.043 497.74C989.103 508.31 989.043 519.35 989.633 527.17C995.558 528.169 1001.57 528.601 1007.57 528.46Z" fill="#1D4280"/>
<path id="Vector_336" d="M1038.93 621.37C1045.86 608.73 1043.16 598.45 1038.62 596.63C1031.55 604.57 1023.05 619.77 1017.49 623.17C1009.49 628.06 1002.49 631.17 995.773 637.58C989.053 643.99 996.923 654.82 986.323 658.12C981.493 659.63 976.953 658.33 973.443 656.48C977.653 662.77 982.513 664.93 987.443 664.54C1003.38 663.29 1030.99 636 1038.93 621.37Z" fill="#0D47A1"/>
<path id="Vector_337" d="M906.233 596.12L910.863 592.61C912.377 591.425 914.233 590.76 916.155 590.713C918.077 590.666 919.963 591.24 921.533 592.35C926.393 595.7 933.043 600.68 935.413 604.27C939.313 610.18 935.883 613.13 932.523 614.98C929.163 616.83 926.733 606.66 924.113 605.61C921.493 604.56 913.243 602.11 905.983 606.67C898.723 611.23 896.453 603.55 906.233 596.12Z" fill="#2E88BF"/>
<path id="Vector_338" d="M909.133 593.92L894.213 605.25C893.348 605.96 892.77 606.959 892.586 608.062C892.402 609.166 892.625 610.298 893.213 611.25C893.463 611.702 893.807 612.096 894.222 612.404C894.636 612.712 895.113 612.927 895.618 613.035C896.123 613.143 896.646 613.141 897.15 613.03C897.655 612.919 898.13 612.701 898.543 612.39L913.443 601C914.309 600.292 914.889 599.292 915.073 598.188C915.257 597.084 915.033 595.951 914.443 595C914.188 594.555 913.84 594.17 913.425 593.87C913.009 593.57 912.534 593.362 912.032 593.26C911.529 593.158 911.011 593.164 910.511 593.278C910.011 593.392 909.541 593.61 909.133 593.92Z" fill="#8077FA"/>
<path id="Vector_339" d="M912.253 599L897.323 610.33C897.139 610.469 896.928 610.566 896.703 610.616C896.479 610.666 896.246 610.667 896.021 610.618C895.796 610.57 895.584 610.473 895.4 610.336C895.215 610.198 895.063 610.022 894.953 609.82C894.7 609.398 894.607 608.899 894.692 608.414C894.776 607.93 895.032 607.492 895.413 607.18L910.333 595.85C910.516 595.711 910.728 595.614 910.952 595.564C911.177 595.514 911.41 595.513 911.635 595.562C911.86 595.61 912.072 595.707 912.256 595.844C912.44 595.982 912.593 596.158 912.703 596.36C912.968 596.778 913.068 597.279 912.985 597.766C912.902 598.254 912.641 598.693 912.253 599Z" fill="#932A3F"/>
<path id="Vector_340" d="M934.133 599.29C933.878 598.231 933.238 597.305 932.338 596.691C931.438 596.078 930.342 595.821 929.263 595.97C926.613 596.44 923.263 597.2 921.653 598.23C920.609 598.929 919.733 599.85 919.086 600.927C918.44 602.004 918.039 603.21 917.913 604.46C917.823 605.87 919.153 606.25 921.063 608.56C922.573 610.38 924.423 610.49 926.663 609.88C928.903 609.27 928.493 607.88 930.093 607.74C931.693 607.6 935.933 607.11 935.393 604.16C935.06 602.515 934.639 600.89 934.133 599.29Z" fill="#FF96A9"/>
<path id="Vector_341" d="M697.007 443.734C698.923 443.482 700.214 441.28 699.889 438.816C699.565 436.352 697.748 434.559 695.832 434.811C693.915 435.064 692.625 437.266 692.949 439.73C693.274 442.194 695.09 443.987 697.007 443.734Z" fill="#D1D3D4"/>
<path id="Vector_342" d="M925.713 220.68C925.664 221.898 925.258 223.075 924.545 224.065C923.833 225.054 922.845 225.813 921.705 226.245C920.565 226.678 919.323 226.766 918.133 226.498C916.944 226.231 915.859 225.62 915.014 224.741C914.169 223.862 913.601 222.754 913.38 221.554C913.16 220.355 913.297 219.118 913.774 217.995C914.251 216.873 915.048 215.916 916.065 215.243C917.081 214.57 918.273 214.211 919.493 214.21C920.326 214.226 921.149 214.405 921.912 214.739C922.676 215.073 923.367 215.554 923.945 216.155C924.522 216.756 924.976 217.465 925.279 218.241C925.583 219.018 925.73 219.846 925.713 220.68Z" fill="#4E86FD"/>
<path id="Vector_343" d="M595.223 138.33C598.117 138.33 600.463 135.89 600.463 132.88C600.463 129.87 598.117 127.43 595.223 127.43C592.329 127.43 589.983 129.87 589.983 132.88C589.983 135.89 592.329 138.33 595.223 138.33Z" fill="#4E86FD"/>
<path id="Vector_344" d="M138.753 158.16C141.647 158.16 143.993 155.72 143.993 152.71C143.993 149.7 141.647 147.26 138.753 147.26C135.859 147.26 133.513 149.7 133.513 152.71C133.513 155.72 135.859 158.16 138.753 158.16Z" fill="#4E86FD"/>
<path id="Vector_345" d="M383.583 10.9C386.477 10.9 388.823 8.45995 388.823 5.45C388.823 2.44005 386.477 0 383.583 0C380.689 0 378.343 2.44005 378.343 5.45C378.343 8.45995 380.689 10.9 383.583 10.9Z" fill="#4E86FD"/>
<path id="Path 5485" d="M341.313 94.68C339.71 94.6157 338.195 93.9338 337.084 92.7772C335.973 91.6205 335.352 90.0789 335.352 88.475C335.352 86.8712 335.973 85.3295 337.084 84.1729C338.195 83.0162 339.71 82.3344 341.313 82.27C341.486 82.2601 341.66 82.2601 341.833 82.27C342.467 80.4427 343.655 78.8584 345.231 77.7372C346.807 76.616 348.694 76.0135 350.628 76.0135C352.562 76.0135 354.448 76.616 356.025 77.7372C357.601 78.8584 358.788 80.4427 359.423 82.27C359.679 82.2551 359.936 82.2551 360.193 82.27C361.14 82.2703 362.074 82.4893 362.923 82.91C363.59 81.6621 364.575 80.6134 365.78 79.8707C366.984 79.1281 368.364 78.7181 369.778 78.6825C371.192 78.647 372.591 78.9873 373.831 79.6685C375.071 80.3498 376.108 81.3478 376.837 82.5606C377.565 83.7735 377.959 85.1579 377.978 86.5726C377.997 87.9873 377.641 89.3818 376.945 90.6138C376.249 91.8458 375.239 92.8712 374.018 93.5855C372.797 94.2999 371.408 94.6775 369.993 94.68H341.313Z" fill="#CAD9FC"/>
<path id="Path 5486" d="M963.143 105.83C966.752 105.841 970.218 104.417 972.778 101.872C975.338 99.3271 976.782 95.8696 976.793 92.26C976.803 88.6504 975.38 85.1844 972.835 82.6245C970.29 80.0646 966.832 78.6206 963.223 78.61C961.613 78.6092 960.016 78.8901 958.503 79.44C957.338 75.0199 954.766 71.0992 951.175 68.2705C947.584 65.4417 943.171 63.8585 938.601 63.7602C934.031 63.662 929.553 65.0539 925.844 67.7258C922.135 70.3976 919.397 74.2041 918.043 78.57C916.104 77.4166 913.924 76.7264 911.674 76.5532C909.425 76.38 907.165 76.7285 905.072 77.5715C902.979 78.4145 901.109 79.7292 899.607 81.4133C898.106 83.0975 897.013 85.1055 896.414 87.2811C895.816 89.4566 895.728 91.741 896.156 93.9563C896.585 96.1716 897.52 98.258 898.887 100.053C900.254 101.848 902.017 103.303 904.039 104.305C906.061 105.307 908.286 105.829 910.543 105.83H963.143Z" fill="#CAD9FC"/>
<path id="Path 5487" d="M714.173 53.83C718.705 53.842 723.057 52.0529 726.271 48.8563C729.484 45.6598 731.296 41.3176 731.308 36.785C731.32 32.2525 729.531 27.9008 726.334 24.6874C723.138 21.474 718.796 19.662 714.263 19.65C712.246 19.6364 710.243 19.9748 708.343 20.65C706.884 15.0964 703.655 10.169 699.147 6.61333C694.638 3.05766 689.094 1.06713 683.353 0.94284C677.612 0.818555 671.987 2.56728 667.328 5.92449C662.67 9.28169 659.231 14.0647 657.533 19.55C655.096 18.0966 652.356 17.2258 649.527 17.0056C646.698 16.7854 643.857 17.2217 641.224 18.2806C638.592 19.3394 636.239 20.9921 634.351 23.1097C632.462 25.2274 631.088 27.7527 630.336 30.4888C629.584 33.2248 629.475 36.0976 630.016 38.883C630.557 41.6684 631.734 44.2911 633.456 46.5466C635.178 48.8021 637.397 50.6293 639.941 51.8858C642.485 53.1422 645.285 53.7939 648.123 53.79L714.173 53.83Z" fill="#CAD9FC"/>
</g>
<defs>
<linearGradient id="paint0_linear_124_361" x1="284.323" y1="635.15" x2="288.373" y2="699.97" gradientUnits="userSpaceOnUse">
<stop stop-color="#D1C4E9"/>
<stop offset="1" stop-color="#EDE7F6"/>
</linearGradient>
<linearGradient id="paint1_linear_124_361" x1="826.333" y1="639.19" x2="830.423" y2="704.61" gradientUnits="userSpaceOnUse">
<stop stop-color="#D1C4E9"/>
<stop offset="1" stop-color="#EDE7F6"/>
</linearGradient>
</defs>
</svg>
